<?xml version="1.0" encoding="UTF-8"?>
<svg xmlns="http://www.w3.org/2000/svg" width="1500" height="500" viewBox="0 0 1500 500" role="img">

<title>Qori social banner - sharing is caring</title>
<rect width="1500" height="500" fill="#231F1A"/>
<path d="M1120 -115 A360 360 0 1 0 1485 425" fill="none" stroke="#F0B85A" stroke-width="55" stroke-linecap="round" opacity="0.92"/>
<path d="M1336 338 L1530 532" fill="none" stroke="#F0B85A" stroke-width="55" stroke-linecap="round" opacity="0.92"/>
<circle cx="1232" cy="138" r="112" fill="none" stroke="#FAF8F5" stroke-width="2" opacity="0.10"/>
<circle cx="1232" cy="138" r="72" fill="none" stroke="#FAF8F5" stroke-width="2" opacity="0.16"/>
<g transform="translate(68 42) scale(0.65)">
<g transform="translate(8 8)">
  <g transform="scale(1.04)">

<g fill="none" stroke="#F0B85A" stroke-width="9" stroke-linecap="round" stroke-linejoin="round">
  <circle cx="50" cy="50" r="31" stroke-dasharray="158 37" transform="rotate(42 50 50)"/>
  <path d="M66 66 L83 83"/>
</g>
</g>
  <g fill="none" stroke="#FAF8F5" stroke-width="9" stroke-linecap="round" stroke-linejoin="round">
    <circle cx="146" cy="60" r="22"/>
    <path d="M191 82 V39 M191 57 C197 45 207 39 220 43"/>
    <path d="M247 55 V82"/>
  </g>
  <circle cx="247" cy="39" r="5" fill="#FAF8F5"/>
</g>
</g>
<text x="78" y="268" font-family="Instrument Sans, DejaVu Sans, sans-serif" font-size="72" font-weight="700" letter-spacing="-2.5" fill="#FAF8F5">sharing is caring</text>
<text x="82" y="326" font-family="Instrument Sans, DejaVu Sans, sans-serif" font-size="25" fill="#C7BCAF">A private classroom for people you already teach.</text>
<rect x="82" y="380" width="250" height="50" rx="25" fill="#F0B85A"/>
<text x="207" y="412" text-anchor="middle" font-family="Instrument Sans, DejaVu Sans, sans-serif" font-size="15" font-weight="700" letter-spacing="1.1" fill="#231F1A">PRIVATE CLASSROOMS</text>

</svg>
